<svg width="1353" height="301" viewBox="0 0 1353 301" fill="none" xmlns="http://www.w3.org/2000/svg">
<path fill-rule="evenodd" clip-rule="evenodd" d="M214.468 66.8585C226.632 63.9561 239.05 64.4357 250.205 70.4676C247.935 69.2267 246.078 66.5706 244.325 64.0639C243.368 62.6957 242.442 61.3719 241.498 60.3471C237.99 56.5361 234.128 53.1038 229.888 50.1004C213.206 38.2638 181.229 33.7966 167.802 53.7347C161.695 62.8204 163.588 76.979 176.611 77.9885C184.617 78.6214 192.652 75.2271 200.55 71.8912C205.25 69.9059 209.901 67.9414 214.468 66.8585ZM230.797 85.7619C270.118 85.7619 301.993 117.638 301.993 156.958C301.993 170.814 298.031 183.736 291.166 194.664C271.733 233.304 224.891 260.561 170.2 260.561C158.439 260.561 146.022 258.895 134.513 256.498C123.03 254.125 111.042 249.86 100.619 244.509C92.0881 240.118 83.7596 234.54 76.491 228.281C48.8048 204.457 38.0029 171.319 44.3629 132.225C45.2463 126.824 47.2148 121.524 49.1582 116.401C49.4617 115.608 49.7841 114.817 50.1065 114.026C51.7948 109.885 53.4856 105.738 52.4896 101.182C51.6844 97.5772 49.4328 94.5426 47.2262 91.5687C46.3897 90.4413 45.5596 89.3225 44.8172 88.1847C39.921 80.689 34.8229 64.5366 40.5015 56.309C48.6282 44.4723 65.3862 52.4981 71.8472 61.7352C75.0777 66.3538 80.731 77.4838 76.7434 85.8123C81.7658 80.7395 91.9619 78.1904 98.8015 78.1652C110.764 78.1147 122.298 83.9447 129.138 93.7371C136.078 103.706 133.554 113.448 121.364 117.436C115.257 119.429 108.367 119.127 102.082 118.42C99.5554 118.135 96.7304 117.165 93.8312 116.17C86.7119 113.727 79.1456 111.13 74.4467 118.142C70.3581 124.225 68.2381 133.083 68.8439 140.352C70.4339 159.331 93.3753 169.022 110.184 165.842C128.355 162.41 138.829 149.488 149.252 135.38C165.38 113.549 186.125 93.7876 212.221 88.2352C218.152 86.6199 224.361 85.7619 230.797 85.7619Z" fill="white"/>
<path fill-rule="evenodd" clip-rule="evenodd" d="M561.782 84.8785H586.263V213.492H561.782V84.8785ZM399.804 196.91C388.245 196.91 374.339 190.55 367.6 184.19L357 201.352C366.818 210.413 382.44 215.814 398.643 215.814C424.487 215.814 438.948 202.892 438.948 185.932C438.948 162.788 417.546 158.548 401.545 155.469C391.122 153.349 383.803 151.229 383.803 145.45C383.803 140.049 389.608 136.768 398.466 136.768C409.823 136.768 420.423 141.588 426.026 147.57L435.869 130.787C426.607 123.468 414.089 118.067 398.264 118.067C373.758 118.067 360.079 131.746 360.079 147.368C360.079 169.442 380.52 173.375 396.486 176.447L396.725 176.493C407.325 178.613 415.426 180.909 415.426 187.471C415.426 193.251 410.404 196.91 399.804 196.91ZM483.493 215.814C495.633 215.814 506.637 211.372 512.997 203.851V213.517H537.478V153.349C537.478 126.547 517.994 118.067 496.794 118.067C482.13 118.067 467.492 122.71 456.11 132.73L465.372 149.109C473.272 141.765 482.534 138.106 492.554 138.106C504.895 138.106 512.997 144.289 512.997 153.728V166.65C506.813 159.129 495.835 155.268 483.493 155.268C468.628 155.268 451.087 163.192 451.087 184.973C451.087 205.794 468.653 215.814 483.493 215.814ZM493.336 171.445C501.236 171.445 508.959 174.146 512.997 179.547V191.106C508.959 196.507 501.236 199.207 493.336 199.207C483.695 199.207 475.796 194.21 475.796 185.528C475.796 176.468 483.695 171.445 493.336 171.445ZM699.456 169.325C699.456 138.863 680.552 118.041 652.79 118.041C624.448 118.041 604.586 139.847 604.611 166.801C604.611 196.708 626.013 215.788 654.355 215.788C668.817 215.788 683.455 211.347 692.717 202.867L681.915 187.068C675.934 192.847 665.712 196.33 657.03 196.33C641.206 196.33 631.767 186.487 630.228 174.726H699.456V169.325ZM652.79 137.525C668.993 137.525 675.151 149.286 675.732 158.145H629.849C631.01 148.908 637.572 137.525 652.79 137.525ZM719.697 184.19C726.435 190.55 740.341 196.91 751.9 196.91C762.5 196.91 767.523 193.251 767.523 187.471C767.523 180.909 759.421 178.613 748.821 176.493L748.583 176.447C732.616 173.375 712.176 169.442 712.176 147.368C712.176 131.746 725.855 118.067 750.361 118.067C766.16 118.067 778.703 123.468 787.966 130.787L778.123 147.57C772.52 141.588 761.92 136.768 750.537 136.768C741.679 136.768 735.874 140.049 735.874 145.45C735.874 151.229 743.193 153.349 753.617 155.469C769.617 158.548 791.019 162.788 791.019 185.932C791.019 202.892 776.558 215.814 750.714 215.814C734.511 215.814 718.889 210.413 709.071 201.352L719.697 184.19ZM851.616 213.517L871.276 150.068L890.937 213.517H916.957L945.3 120.388H919.885L902.521 183.055L882.078 120.388H860.298L839.855 183.055L822.491 120.388H797.051L825.394 213.517H851.616ZM1020.51 156.807C1020.51 143.885 1013.77 139.847 1003.15 139.847C993.706 139.847 986.185 145.248 981.945 150.826V213.492H957.465V84.8785H981.945V132.503C987.927 125.36 999.486 118.041 1014.73 118.041C1035.17 118.041 1045.02 129.222 1045.02 147.343V213.492H1020.53V156.807H1020.51ZM1095.72 215.814C1107.86 215.814 1118.86 211.372 1125.22 203.851V213.517H1149.7V153.349C1149.7 126.547 1130.22 118.067 1109.02 118.067C1094.36 118.067 1079.72 122.71 1068.34 132.73L1077.6 149.109C1085.5 141.765 1094.76 138.106 1104.78 138.106C1117.12 138.106 1125.22 144.289 1125.22 153.728V166.65C1119.04 159.129 1108.06 155.268 1095.72 155.268C1080.85 155.268 1063.31 163.192 1063.31 184.973C1063.31 205.794 1080.88 215.814 1095.72 215.814ZM1105.56 171.445C1113.46 171.445 1121.18 174.146 1125.22 179.547V191.106C1121.18 196.507 1113.46 199.207 1105.56 199.207C1095.92 199.207 1088.02 194.21 1088.02 185.528C1088.02 176.468 1095.92 171.445 1105.56 171.445ZM1174.01 84.8785H1198.49V213.492H1174.01V84.8785ZM1311.68 169.325C1311.68 138.863 1292.78 118.041 1265.02 118.041C1236.67 118.041 1216.81 139.847 1216.84 166.801C1216.84 196.708 1238.24 215.788 1266.58 215.788C1281.04 215.788 1295.68 211.347 1304.94 202.867L1294.14 187.068C1288.16 192.847 1277.94 196.33 1269.26 196.33C1253.43 196.33 1243.99 186.487 1242.45 174.726H1311.68V169.325ZM1265.02 137.525C1281.22 137.525 1287.38 149.286 1287.96 158.145H1242.07C1243.24 148.908 1249.8 137.525 1265.02 137.525Z" fill="white"/>
</svg>
