<svg width="1351" height="304" viewBox="0 0 1351 304" fill="none" xmlns="http://www.w3.org/2000/svg">
<rect width="1351" height="304" fill="white"/>
<path fill-rule="evenodd" clip-rule="evenodd" d="M214.468 66.8585C226.632 63.9561 239.05 64.4357 250.205 70.4676C247.935 69.2267 246.078 66.5707 244.325 64.0639C243.368 62.6957 242.442 61.3719 241.498 60.3471C237.99 56.5361 234.128 53.1038 229.888 50.1004C213.206 38.2638 181.229 33.7966 167.802 53.7347C161.695 62.8204 163.588 76.979 176.611 77.9885C184.617 78.6214 192.652 75.2271 200.55 71.8912C205.25 69.9059 209.901 67.9414 214.468 66.8585ZM230.797 85.7619C270.118 85.7619 301.993 117.638 301.993 156.958C301.993 170.814 298.031 183.736 291.166 194.664C271.733 233.304 224.891 260.561 170.2 260.561C158.439 260.561 146.022 258.895 134.513 256.498C123.03 254.125 111.042 249.86 100.619 244.509C92.0881 240.118 83.7596 234.54 76.491 228.281C48.8048 204.457 38.0029 171.319 44.3629 132.225C45.2463 126.824 47.2148 121.524 49.1582 116.401C49.4617 115.608 49.7841 114.817 50.1065 114.026C51.7948 109.885 53.4856 105.738 52.4896 101.182C51.6844 97.5772 49.4328 94.5426 47.2262 91.5687C46.3897 90.4413 45.5596 89.3225 44.8172 88.1847C39.921 80.689 34.8229 64.5366 40.5015 56.309C48.6282 44.4723 65.3862 52.4981 71.8472 61.7352C75.0777 66.3538 80.731 77.4838 76.7434 85.8123C81.7658 80.7395 91.9619 78.1904 98.8015 78.1652C110.764 78.1147 122.298 83.9447 129.138 93.7371C136.078 103.706 133.554 113.448 121.364 117.436C115.257 119.429 108.367 119.127 102.082 118.42C99.5554 118.135 96.7304 117.165 93.8312 116.17C86.7119 113.727 79.1456 111.13 74.4467 118.142C70.3581 124.225 68.2381 133.083 68.8439 140.352C70.4339 159.331 93.3753 169.022 110.184 165.842C128.355 162.41 138.829 149.488 149.252 135.38C165.38 113.549 186.125 93.7876 212.221 88.2352C218.152 86.6199 224.361 85.7619 230.797 85.7619Z" fill="#1C96F8"/>
<path fill-rule="evenodd" clip-rule="evenodd" d="M563.785 84.8128H588.266V213.426H563.785V84.8128ZM401.807 196.845C390.248 196.845 376.342 190.485 369.603 184.125L359.003 201.287C368.821 210.347 384.443 215.748 400.646 215.748C426.49 215.748 440.951 202.826 440.951 185.866C440.951 162.723 419.549 158.483 403.548 155.404C393.125 153.284 385.806 151.164 385.806 145.384C385.806 139.983 391.611 136.702 400.469 136.702C411.826 136.702 422.426 141.523 428.029 147.504L437.872 130.721C428.61 123.402 416.091 118.001 400.267 118.001C375.761 118.001 362.082 131.68 362.082 147.302C362.082 169.377 382.523 173.309 398.489 176.381L398.728 176.427C409.328 178.547 417.429 180.844 417.429 187.406C417.429 193.185 412.407 196.845 401.807 196.845ZM485.496 215.748C497.636 215.748 508.64 211.306 515 203.785V213.451H539.481V153.284C539.481 126.481 519.997 118.001 498.797 118.001C484.133 118.001 469.495 122.645 458.113 132.664L467.375 149.044C475.275 141.699 484.537 138.04 494.557 138.04C506.898 138.04 515 144.223 515 153.662V166.584C508.816 159.063 497.838 155.202 485.496 155.202C470.631 155.202 453.09 163.127 453.09 184.907C453.09 205.728 470.656 215.748 485.496 215.748ZM495.339 171.379C503.239 171.379 510.961 174.08 515 179.481V191.04C510.961 196.441 503.239 199.141 495.339 199.141C485.698 199.141 477.799 194.144 477.799 185.462C477.799 176.402 485.698 171.379 495.339 171.379ZM701.459 169.259C701.459 138.797 682.555 117.976 654.793 117.976C626.451 117.976 606.589 139.781 606.614 166.736C606.614 196.643 628.016 215.723 656.358 215.723C670.82 215.723 685.458 211.281 694.72 202.801L683.918 187.002C677.937 192.781 667.715 196.264 659.033 196.264C643.209 196.264 633.77 186.421 632.23 174.66H701.459V169.259ZM677.735 158.079H631.852C633.013 148.842 639.575 137.459 654.793 137.459C670.996 137.459 677.154 149.22 677.735 158.079ZM721.699 184.125C728.438 190.485 742.344 196.845 753.903 196.845C764.503 196.845 769.526 193.185 769.526 187.406C769.526 180.844 761.424 178.547 750.824 176.427L750.586 176.381C734.619 173.309 714.179 169.377 714.179 147.302C714.179 131.68 727.858 118.001 752.364 118.001C768.163 118.001 780.706 123.402 789.968 130.721L780.126 147.504C774.523 141.523 763.923 136.702 752.54 136.702C743.682 136.702 737.877 139.983 737.877 145.384C737.877 151.164 745.196 153.284 755.619 155.404C771.62 158.483 793.022 162.723 793.022 185.866C793.022 202.826 778.561 215.748 752.717 215.748C736.514 215.748 720.892 210.347 711.074 201.287L721.699 184.125ZM853.619 213.451L873.279 150.003L892.94 213.451H918.96L947.303 120.323H921.888L904.524 182.989L884.081 120.323H862.301L841.858 182.989L824.494 120.323H799.054L827.397 213.451H853.619ZM1022.51 156.741C1022.51 143.819 1015.77 139.781 1005.15 139.781C995.709 139.781 988.188 145.182 983.948 150.76V213.426H959.467V84.8128H983.948V132.437C989.93 125.295 1001.49 117.976 1016.73 117.976C1037.18 117.976 1047.02 129.156 1047.02 147.277V213.426H1022.54V156.741H1022.51ZM1097.72 215.748C1109.86 215.748 1120.87 211.306 1127.23 203.785V213.451H1151.71V153.284C1151.71 126.481 1132.22 118.001 1111.02 118.001C1096.36 118.001 1081.72 122.645 1070.34 132.664L1079.6 149.044C1087.5 141.699 1096.76 138.04 1106.78 138.04C1119.12 138.04 1127.23 144.223 1127.23 153.662V166.584C1121.04 159.063 1110.06 155.202 1097.72 155.202C1082.86 155.202 1065.32 163.127 1065.32 184.907C1065.32 205.728 1082.88 215.748 1097.72 215.748ZM1107.56 171.379C1115.46 171.379 1123.19 174.08 1127.23 179.481V191.04C1123.19 196.441 1115.46 199.141 1107.56 199.141C1097.92 199.141 1090.02 194.144 1090.02 185.462C1090.02 176.402 1097.92 171.379 1107.56 171.379ZM1176.01 84.8128H1200.49V213.426H1176.01V84.8128ZM1313.68 169.259C1313.68 138.797 1294.78 117.976 1267.02 117.976C1238.68 117.976 1218.81 139.781 1218.84 166.736C1218.84 196.643 1240.24 215.723 1268.58 215.723C1283.05 215.723 1297.68 211.281 1306.95 202.801L1296.14 187.002C1290.16 192.781 1279.94 196.264 1271.26 196.264C1255.43 196.264 1246 186.421 1244.46 174.66H1313.68V169.259ZM1267.02 137.459C1283.22 137.459 1289.38 149.22 1289.96 158.079H1244.08C1245.24 148.842 1251.8 137.459 1267.02 137.459Z" fill="#17191B"/>
</svg>
