<svg width="1351" height="304" viewBox="0 0 1351 304" fill="none" xmlns="http://www.w3.org/2000/svg">
<rect width="1351" height="304" fill="white"/>
<path fill-rule="evenodd" clip-rule="evenodd" d="M214.468 66.8585C226.632 63.9561 239.05 64.4357 250.205 70.4676C247.935 69.2267 246.078 66.5706 244.325 64.0639C243.368 62.6957 242.442 61.3719 241.498 60.3471C237.99 56.5361 234.128 53.1038 229.888 50.1004C213.206 38.2638 181.229 33.7966 167.802 53.7347C161.695 62.8204 163.588 76.979 176.611 77.9885C184.617 78.6214 192.652 75.2271 200.55 71.8912C205.25 69.9059 209.901 67.9414 214.468 66.8585ZM230.797 85.7619C270.118 85.7619 301.993 117.638 301.993 156.958C301.993 170.814 298.031 183.736 291.166 194.664C271.733 233.304 224.891 260.561 170.2 260.561C158.439 260.561 146.022 258.895 134.513 256.498C123.03 254.125 111.042 249.86 100.619 244.509C92.0881 240.118 83.7596 234.54 76.491 228.281C48.8048 204.457 38.0029 171.319 44.3629 132.225C45.2463 126.824 47.2148 121.524 49.1582 116.401C49.4617 115.608 49.7841 114.817 50.1065 114.026C51.7948 109.885 53.4856 105.738 52.4896 101.182C51.6844 97.5772 49.4328 94.5426 47.2262 91.5687C46.3897 90.4413 45.5596 89.3225 44.8172 88.1847C39.921 80.689 34.8229 64.5366 40.5015 56.309C48.6282 44.4723 65.3862 52.4981 71.8472 61.7352C75.0777 66.3538 80.731 77.4838 76.7434 85.8123C81.7658 80.7395 91.9619 78.1904 98.8015 78.1652C110.764 78.1147 122.298 83.9447 129.138 93.7371C136.078 103.706 133.554 113.448 121.364 117.436C115.257 119.429 108.367 119.127 102.082 118.42C99.5554 118.135 96.7304 117.165 93.8312 116.17C86.7119 113.727 79.1456 111.13 74.4467 118.142C70.3581 124.225 68.2381 133.083 68.8439 140.352C70.4339 159.331 93.3753 169.022 110.184 165.842C128.355 162.41 138.829 149.488 149.252 135.38C165.38 113.549 186.125 93.7876 212.221 88.2352C218.152 86.6199 224.361 85.7619 230.797 85.7619Z" fill="#17191B"/>
<path fill-rule="evenodd" clip-rule="evenodd" d="M563.282 84.8785H587.763V213.492H563.282V84.8785ZM401.304 196.91C389.745 196.91 375.839 190.55 369.1 184.19L358.5 201.352C368.318 210.413 383.94 215.814 400.143 215.814C425.987 215.814 440.448 202.892 440.448 185.932C440.448 162.788 419.046 158.548 403.045 155.469C392.622 153.349 385.303 151.229 385.303 145.45C385.303 140.049 391.108 136.768 399.966 136.768C411.323 136.768 421.923 141.588 427.526 147.57L437.369 130.787C428.107 123.468 415.589 118.067 399.764 118.067C375.258 118.067 361.579 131.746 361.579 147.368C361.579 169.442 382.02 173.375 397.986 176.447L398.225 176.493C408.825 178.613 416.926 180.909 416.926 187.471C416.926 193.251 411.904 196.91 401.304 196.91ZM484.993 215.814C497.133 215.814 508.137 211.372 514.497 203.851V213.517H538.978V153.349C538.978 126.547 519.494 118.067 498.294 118.067C483.63 118.067 468.992 122.71 457.61 132.73L466.872 149.109C474.772 141.765 484.034 138.106 494.054 138.106C506.395 138.106 514.497 144.289 514.497 153.728V166.65C508.313 159.129 497.335 155.268 484.993 155.268C470.128 155.268 452.587 163.192 452.587 184.973C452.587 205.794 470.153 215.814 484.993 215.814ZM494.836 171.445C502.736 171.445 510.459 174.146 514.497 179.547V191.106C510.459 196.507 502.736 199.207 494.836 199.207C485.195 199.207 477.296 194.21 477.296 185.528C477.296 176.468 485.195 171.445 494.836 171.445ZM700.956 169.325C700.956 138.863 682.052 118.041 654.29 118.041C625.948 118.041 606.086 139.847 606.111 166.801C606.111 196.708 627.513 215.788 655.855 215.788C670.317 215.788 684.955 211.347 694.217 202.867L683.415 187.068C677.434 192.847 667.212 196.33 658.53 196.33C642.706 196.33 633.267 186.487 631.728 174.726H700.956V169.325ZM677.232 158.145H631.349C632.51 148.908 639.072 137.525 654.29 137.525C670.493 137.525 676.651 149.286 677.232 158.145ZM721.197 184.19C727.935 190.55 741.841 196.91 753.4 196.91C764 196.91 769.023 193.251 769.023 187.471C769.023 180.909 760.921 178.613 750.321 176.493L750.083 176.447C734.116 173.375 713.676 169.442 713.676 147.368C713.676 131.746 727.355 118.067 751.861 118.067C767.66 118.067 780.203 123.468 789.466 130.787L779.623 147.57C774.02 141.588 763.42 136.768 752.037 136.768C743.179 136.768 737.374 140.049 737.374 145.45C737.374 151.229 744.693 153.349 755.116 155.469C771.117 158.548 792.519 162.788 792.519 185.932C792.519 202.892 778.058 215.814 752.214 215.814C736.011 215.814 720.389 210.413 710.571 201.352L721.197 184.19ZM853.116 213.517L872.776 150.068L892.437 213.517H918.457L946.8 120.388H921.385L904.021 183.055L883.578 120.388H861.798L841.355 183.055L823.991 120.388H798.551L826.894 213.517H853.116ZM1022.01 156.807C1022.01 143.885 1015.27 139.847 1004.65 139.847C995.206 139.847 987.685 145.248 983.445 150.826V213.492H958.965V84.8785H983.445V132.503C989.427 125.36 1000.99 118.041 1016.23 118.041C1036.67 118.041 1046.52 129.222 1046.52 147.343V213.492H1022.03V156.807H1022.01ZM1097.22 215.814C1109.36 215.814 1120.36 211.372 1126.72 203.851V213.517H1151.2V153.349C1151.2 126.547 1131.72 118.067 1110.52 118.067C1095.86 118.067 1081.22 122.71 1069.84 132.73L1079.1 149.109C1087 141.765 1096.26 138.106 1106.28 138.106C1118.62 138.106 1126.72 144.289 1126.72 153.728V166.65C1120.54 159.129 1109.56 155.268 1097.22 155.268C1082.35 155.268 1064.81 163.192 1064.81 184.973C1064.81 205.794 1082.38 215.814 1097.22 215.814ZM1107.06 171.445C1114.96 171.445 1122.68 174.146 1126.72 179.547V191.106C1122.68 196.507 1114.96 199.207 1107.06 199.207C1097.42 199.207 1089.52 194.21 1089.52 185.528C1089.52 176.468 1097.42 171.445 1107.06 171.445ZM1175.51 84.8785H1199.99V213.492H1175.51V84.8785ZM1313.18 169.325C1313.18 138.863 1294.28 118.041 1266.52 118.041C1238.17 118.041 1218.31 139.847 1218.34 166.801C1218.34 196.708 1239.74 215.788 1268.08 215.788C1282.54 215.788 1297.18 211.347 1306.44 202.867L1295.64 187.068C1289.66 192.847 1279.44 196.33 1270.76 196.33C1254.93 196.33 1245.49 186.487 1243.95 174.726H1313.18V169.325ZM1266.52 137.525C1282.72 137.525 1288.88 149.286 1289.46 158.145H1243.57C1244.74 148.908 1251.3 137.525 1266.52 137.525Z" fill="#17191B"/>
</svg>
