<svg width="1352" height="389" viewBox="0 0 1352 389" fill="none" xmlns="http://www.w3.org/2000/svg">
<rect width="1352" height="389" fill="white"/>
<path fill-rule="evenodd" clip-rule="evenodd" d="M214.468 66.933C226.632 64.0306 239.05 64.5101 250.205 70.542C247.935 69.3012 246.078 66.6451 244.325 64.1384C243.368 62.7701 242.442 61.4464 241.498 60.4216C237.99 56.6106 234.128 53.1782 229.888 50.1749C213.206 38.3382 181.229 33.8711 167.802 53.8092C161.695 62.8949 163.588 77.0535 176.611 78.063C184.617 78.6959 192.652 75.3016 200.55 71.9657C205.25 69.9804 209.901 68.0158 214.468 66.933ZM230.797 85.8363C270.118 85.8363 301.993 117.712 301.993 157.033C301.993 170.889 298.031 183.811 291.166 194.739C271.733 233.378 224.891 260.635 170.2 260.635C158.439 260.635 146.022 258.97 134.513 256.572C123.03 254.2 111.042 249.934 100.619 244.584C92.0881 240.192 83.7596 234.615 76.491 228.356C48.8048 204.531 38.0029 171.393 44.3629 132.3C45.2463 126.899 47.2148 121.599 49.1582 116.475C49.4617 115.682 49.7841 114.891 50.1065 114.101C51.7948 109.96 53.4856 105.813 52.4896 101.257C51.6844 97.6517 49.4328 94.6171 47.2262 91.6432C46.3897 90.5157 45.5596 89.397 44.8172 88.2592C39.921 80.7635 34.8229 64.6111 40.5015 56.3835C48.6282 44.5468 65.3862 52.5725 71.8472 61.8097C75.0777 66.4282 80.731 77.5582 76.7434 85.8868C81.7658 80.8139 91.9619 78.2649 98.8015 78.2397C110.764 78.1892 122.298 84.0192 129.138 93.8116C136.078 103.781 133.554 113.522 121.364 117.51C115.257 119.504 108.367 119.201 102.082 118.494C99.5554 118.21 96.7304 117.24 93.8312 116.245C86.7119 113.801 79.1456 111.204 74.4467 118.217C70.3581 124.299 68.2381 133.158 68.8439 140.426C70.4339 159.405 93.3753 169.097 110.184 165.917C128.355 162.484 138.829 149.562 149.252 135.454C165.38 113.623 186.125 93.862 212.221 88.3097C218.152 86.6944 224.361 85.8363 230.797 85.8363Z" fill="#1C96F8"/>
<path fill-rule="evenodd" clip-rule="evenodd" d="M563.785 84.8873H588.266V213.501H563.785V84.8873ZM401.807 196.919C390.248 196.919 376.342 190.559 369.603 184.199L359.003 201.361C368.821 210.422 384.443 215.822 400.646 215.822C426.49 215.822 440.951 202.901 440.951 185.941C440.951 162.797 419.549 158.557 403.548 155.478C393.125 153.358 385.806 151.238 385.806 145.459C385.806 140.058 391.611 136.777 400.469 136.777C411.826 136.777 422.426 141.597 428.029 147.579L437.872 130.795C428.61 123.476 416.091 118.075 400.267 118.075C375.761 118.075 362.082 131.754 362.082 147.377C362.082 169.451 382.523 173.384 398.489 176.456L398.728 176.502C409.328 178.622 417.429 180.918 417.429 187.48C417.429 193.26 412.407 196.919 401.807 196.919ZM485.496 215.822C497.636 215.822 508.64 211.381 515 203.86V213.526H539.481V153.358C539.481 126.555 519.997 118.075 498.797 118.075C484.133 118.075 469.495 122.719 458.113 132.739L467.375 149.118C475.275 141.774 484.537 138.114 494.557 138.114C506.898 138.114 515 144.298 515 153.737V166.659C508.816 159.138 497.838 155.276 485.496 155.276C470.631 155.276 453.09 163.201 453.09 184.982C453.09 205.803 470.656 215.822 485.496 215.822ZM495.339 171.454C503.239 171.454 510.961 174.154 515 179.555V191.114C510.961 196.515 503.239 199.216 495.339 199.216C485.698 199.216 477.799 194.219 477.799 185.537C477.799 176.476 485.698 171.454 495.339 171.454ZM701.459 169.334C701.459 138.872 682.555 118.05 654.793 118.05C626.451 118.05 606.589 139.856 606.614 166.81C606.614 196.717 628.016 215.797 656.358 215.797C670.82 215.797 685.458 211.355 694.72 202.875L683.918 187.076C677.937 192.856 667.715 196.339 659.033 196.339C643.209 196.339 633.77 186.496 632.23 174.735H701.459V169.334ZM677.735 158.153H631.852C633.013 148.916 639.575 137.534 654.793 137.534C670.996 137.534 677.154 149.295 677.735 158.153ZM721.699 184.199C728.438 190.559 742.344 196.919 753.903 196.919C764.503 196.919 769.526 193.26 769.526 187.48C769.526 180.918 761.424 178.622 750.824 176.502L750.586 176.456C734.619 173.384 714.179 169.451 714.179 147.377C714.179 131.754 727.858 118.075 752.364 118.075C768.163 118.075 780.706 123.476 789.968 130.795L780.126 147.579C774.523 141.597 763.923 136.777 752.54 136.777C743.682 136.777 737.877 140.058 737.877 145.459C737.877 151.238 745.196 153.358 755.619 155.478C771.62 158.557 793.022 162.797 793.022 185.941C793.022 202.901 778.561 215.822 752.717 215.822C736.514 215.822 720.892 210.422 711.074 201.361L721.699 184.199ZM853.619 213.526L873.279 150.077L892.94 213.526H918.96L947.303 120.397H921.888L904.524 183.063L884.081 120.397H862.301L841.858 183.063L824.494 120.397H799.054L827.397 213.526H853.619ZM1022.51 156.816C1022.51 143.894 1015.77 139.856 1005.15 139.856C995.709 139.856 988.188 145.257 983.948 150.834V213.501H959.467V84.8873H983.948V132.512C989.93 125.369 1001.49 118.05 1016.73 118.05C1037.18 118.05 1047.02 129.231 1047.02 147.352V213.501H1022.54V156.816H1022.51ZM1097.72 215.822C1109.86 215.822 1120.87 211.381 1127.23 203.86V213.526H1151.71V153.358C1151.71 126.555 1132.22 118.075 1111.02 118.075C1096.36 118.075 1081.72 122.719 1070.34 132.739L1079.6 149.118C1087.5 141.774 1096.76 138.114 1106.78 138.114C1119.12 138.114 1127.23 144.298 1127.23 153.737V166.659C1121.04 159.138 1110.06 155.276 1097.72 155.276C1082.86 155.276 1065.32 163.201 1065.32 184.982C1065.32 205.803 1082.88 215.822 1097.72 215.822ZM1107.56 171.454C1115.46 171.454 1123.19 174.154 1127.23 179.555V191.114C1123.19 196.515 1115.46 199.216 1107.56 199.216C1097.92 199.216 1090.02 194.219 1090.02 185.537C1090.02 176.476 1097.92 171.454 1107.56 171.454ZM1176.01 84.8873H1200.49V213.501H1176.01V84.8873ZM1313.68 169.334C1313.68 138.872 1294.78 118.05 1267.02 118.05C1238.68 118.05 1218.81 139.856 1218.84 166.81C1218.84 196.717 1240.24 215.797 1268.58 215.797C1283.05 215.797 1297.68 211.355 1306.95 202.875L1296.14 187.076C1290.16 192.856 1279.94 196.339 1271.26 196.339C1255.43 196.339 1246 186.496 1244.46 174.735H1313.68V169.334ZM1267.02 137.534C1283.22 137.534 1289.38 149.295 1289.96 158.153H1244.08C1245.24 148.916 1251.8 137.534 1267.02 137.534Z" fill="#17191B"/>
<path d="M233.673 312.6V349H226.757L208.609 326.9V349H200.289V312.6H207.257L225.353 334.7V312.6H233.673ZM268.077 335.116C268.077 335.22 268.025 335.948 267.921 337.3H246.757C247.138 339.033 248.04 340.403 249.461 341.408C250.882 342.413 252.65 342.916 254.765 342.916C256.221 342.916 257.504 342.708 258.613 342.292C259.757 341.841 260.814 341.148 261.785 340.212L266.101 344.892C263.466 347.908 259.618 349.416 254.557 349.416C251.402 349.416 248.612 348.809 246.185 347.596C243.758 346.348 241.886 344.632 240.569 342.448C239.252 340.264 238.593 337.785 238.593 335.012C238.593 332.273 239.234 329.812 240.517 327.628C241.834 325.409 243.62 323.693 245.873 322.48C248.161 321.232 250.709 320.608 253.517 320.608C256.256 320.608 258.734 321.197 260.953 322.376C263.172 323.555 264.905 325.253 266.153 327.472C267.436 329.656 268.077 332.204 268.077 335.116ZM253.569 326.744C251.732 326.744 250.189 327.264 248.941 328.304C247.693 329.344 246.93 330.765 246.653 332.568H260.433C260.156 330.8 259.393 329.396 258.145 328.356C256.897 327.281 255.372 326.744 253.569 326.744ZM299.698 321.024L287.894 349H279.522L267.77 321.024H276.142L283.89 340.056L291.898 321.024H299.698ZM328.61 335.116C328.61 335.22 328.558 335.948 328.454 337.3H307.29C307.672 339.033 308.573 340.403 309.994 341.408C311.416 342.413 313.184 342.916 315.298 342.916C316.754 342.916 318.037 342.708 319.146 342.292C320.29 341.841 321.348 341.148 322.318 340.212L326.634 344.892C324 347.908 320.152 349.416 315.09 349.416C311.936 349.416 309.145 348.809 306.718 347.596C304.292 346.348 302.42 344.632 301.102 342.448C299.785 340.264 299.126 337.785 299.126 335.012C299.126 332.273 299.768 329.812 301.05 327.628C302.368 325.409 304.153 323.693 306.406 322.48C308.694 321.232 311.242 320.608 314.05 320.608C316.789 320.608 319.268 321.197 321.486 322.376C323.705 323.555 325.438 325.253 326.686 327.472C327.969 329.656 328.61 332.204 328.61 335.116ZM314.102 326.744C312.265 326.744 310.722 327.264 309.474 328.304C308.226 329.344 307.464 330.765 307.186 332.568H320.966C320.689 330.8 319.926 329.396 318.678 328.356C317.43 327.281 315.905 326.744 314.102 326.744ZM340.719 324.716C341.69 323.364 342.99 322.341 344.619 321.648C346.283 320.955 348.19 320.608 350.339 320.608V328.096C349.438 328.027 348.831 327.992 348.519 327.992C346.196 327.992 344.376 328.651 343.059 329.968C341.742 331.251 341.083 333.192 341.083 335.792V349H332.971V321.024H340.719V324.716ZM412.94 321.024L402.8 349H395L388.708 331.632L382.208 349H374.408L364.32 321.024H371.964L378.568 339.952L385.432 321.024H392.296L398.952 339.952L405.764 321.024H412.94ZM426.041 320.608C430.375 320.608 433.703 321.648 436.025 323.728C438.348 325.773 439.509 328.876 439.509 333.036V349H431.917V345.516C430.392 348.116 427.549 349.416 423.389 349.416C421.24 349.416 419.368 349.052 417.773 348.324C416.213 347.596 415.017 346.591 414.185 345.308C413.353 344.025 412.937 342.569 412.937 340.94C412.937 338.34 413.908 336.295 415.849 334.804C417.825 333.313 420.859 332.568 424.949 332.568H431.397C431.397 330.8 430.86 329.448 429.785 328.512C428.711 327.541 427.099 327.056 424.949 327.056C423.459 327.056 421.985 327.299 420.529 327.784C419.108 328.235 417.895 328.859 416.889 329.656L413.977 323.988C415.503 322.913 417.323 322.081 419.437 321.492C421.587 320.903 423.788 320.608 426.041 320.608ZM425.417 343.956C426.804 343.956 428.035 343.644 429.109 343.02C430.184 342.361 430.947 341.408 431.397 340.16V337.3H425.833C422.505 337.3 420.841 338.392 420.841 340.576C420.841 341.616 421.24 342.448 422.037 343.072C422.869 343.661 423.996 343.956 425.417 343.956ZM455.223 349.416C452.9 349.416 450.63 349.139 448.411 348.584C446.192 347.995 444.424 347.267 443.107 346.4L445.811 340.576C447.059 341.373 448.567 342.032 450.335 342.552C452.103 343.037 453.836 343.28 455.535 343.28C458.967 343.28 460.683 342.431 460.683 340.732C460.683 339.935 460.215 339.363 459.279 339.016C458.343 338.669 456.904 338.375 454.963 338.132C452.675 337.785 450.786 337.387 449.295 336.936C447.804 336.485 446.504 335.688 445.395 334.544C444.32 333.4 443.783 331.771 443.783 329.656C443.783 327.888 444.286 326.328 445.291 324.976C446.331 323.589 447.822 322.515 449.763 321.752C451.739 320.989 454.062 320.608 456.731 320.608C458.707 320.608 460.666 320.833 462.607 321.284C464.583 321.7 466.212 322.289 467.495 323.052L464.791 328.824C462.33 327.437 459.643 326.744 456.731 326.744C454.998 326.744 453.698 326.987 452.831 327.472C451.964 327.957 451.531 328.581 451.531 329.344C451.531 330.211 451.999 330.817 452.935 331.164C453.871 331.511 455.362 331.84 457.407 332.152C459.695 332.533 461.567 332.949 463.023 333.4C464.479 333.816 465.744 334.596 466.819 335.74C467.894 336.884 468.431 338.479 468.431 340.524C468.431 342.257 467.911 343.8 466.871 345.152C465.831 346.504 464.306 347.561 462.295 348.324C460.319 349.052 457.962 349.416 455.223 349.416ZM490.44 347.648C489.643 348.237 488.655 348.688 487.476 349C486.332 349.277 485.119 349.416 483.836 349.416C480.508 349.416 477.925 348.567 476.088 346.868C474.285 345.169 473.384 342.673 473.384 339.38V327.888H469.068V321.648H473.384V314.836H481.496V321.648H488.464V327.888H481.496V339.276C481.496 340.455 481.791 341.373 482.38 342.032C483.004 342.656 483.871 342.968 484.98 342.968C486.263 342.968 487.355 342.621 488.256 341.928L490.44 347.648ZM520.494 335.116C520.494 335.22 520.442 335.948 520.338 337.3H499.174C499.556 339.033 500.457 340.403 501.878 341.408C503.3 342.413 505.068 342.916 507.182 342.916C508.638 342.916 509.921 342.708 511.03 342.292C512.174 341.841 513.232 341.148 514.202 340.212L518.518 344.892C515.884 347.908 512.036 349.416 506.974 349.416C503.82 349.416 501.029 348.809 498.602 347.596C496.176 346.348 494.304 344.632 492.986 342.448C491.669 340.264 491.01 337.785 491.01 335.012C491.01 332.273 491.652 329.812 492.934 327.628C494.252 325.409 496.037 323.693 498.29 322.48C500.578 321.232 503.126 320.608 505.934 320.608C508.673 320.608 511.152 321.197 513.37 322.376C515.589 323.555 517.322 325.253 518.57 327.472C519.853 329.656 520.494 332.204 520.494 335.116ZM505.986 326.744C504.149 326.744 502.606 327.264 501.358 328.304C500.11 329.344 499.348 330.765 499.07 332.568H512.85C512.573 330.8 511.81 329.396 510.562 328.356C509.314 327.281 507.789 326.744 505.986 326.744ZM549.826 320.608C554.159 320.608 557.487 321.648 559.81 323.728C562.132 325.773 563.294 328.876 563.294 333.036V349H555.702V345.516C554.176 348.116 551.334 349.416 547.174 349.416C545.024 349.416 543.152 349.052 541.558 348.324C539.998 347.596 538.802 346.591 537.97 345.308C537.138 344.025 536.722 342.569 536.722 340.94C536.722 338.34 537.692 336.295 539.634 334.804C541.61 333.313 544.643 332.568 548.734 332.568H555.182C555.182 330.8 554.644 329.448 553.57 328.512C552.495 327.541 550.883 327.056 548.734 327.056C547.243 327.056 545.77 327.299 544.314 327.784C542.892 328.235 541.679 328.859 540.674 329.656L537.762 323.988C539.287 322.913 541.107 322.081 543.222 321.492C545.371 320.903 547.572 320.608 549.826 320.608ZM549.202 343.956C550.588 343.956 551.819 343.644 552.894 343.02C553.968 342.361 554.731 341.408 555.182 340.16V337.3H549.618C546.29 337.3 544.626 338.392 544.626 340.576C544.626 341.616 545.024 342.448 545.822 343.072C546.654 343.661 547.78 343.956 549.202 343.956ZM619.11 320.608C622.611 320.608 625.385 321.648 627.43 323.728C629.51 325.773 630.55 328.859 630.55 332.984V349H622.438V334.232C622.438 332.013 621.97 330.367 621.034 329.292C620.133 328.183 618.833 327.628 617.134 327.628C615.227 327.628 613.719 328.252 612.61 329.5C611.501 330.713 610.946 332.533 610.946 334.96V349H602.834V334.232C602.834 329.829 601.066 327.628 597.53 327.628C595.658 327.628 594.167 328.252 593.058 329.5C591.949 330.713 591.394 332.533 591.394 334.96V349H583.282V321.024H591.03V324.248C592.07 323.069 593.335 322.168 594.826 321.544C596.351 320.92 598.015 320.608 599.818 320.608C601.794 320.608 603.579 321.007 605.174 321.804C606.769 322.567 608.051 323.693 609.022 325.184C610.166 323.728 611.605 322.601 613.338 321.804C615.106 321.007 617.03 320.608 619.11 320.608ZM648.065 320.608C652.398 320.608 655.726 321.648 658.049 323.728C660.372 325.773 661.533 328.876 661.533 333.036V349H653.941V345.516C652.416 348.116 649.573 349.416 645.413 349.416C643.264 349.416 641.392 349.052 639.797 348.324C638.237 347.596 637.041 346.591 636.209 345.308C635.377 344.025 634.961 342.569 634.961 340.94C634.961 338.34 635.932 336.295 637.873 334.804C639.849 333.313 642.882 332.568 646.973 332.568H653.421C653.421 330.8 652.884 329.448 651.809 328.512C650.734 327.541 649.122 327.056 646.973 327.056C645.482 327.056 644.009 327.299 642.553 327.784C641.132 328.235 639.918 328.859 638.913 329.656L636.001 323.988C637.526 322.913 639.346 322.081 641.461 321.492C643.61 320.903 645.812 320.608 648.065 320.608ZM647.441 343.956C648.828 343.956 650.058 343.644 651.133 343.02C652.208 342.361 652.97 341.408 653.421 340.16V337.3H647.857C644.529 337.3 642.865 338.392 642.865 340.576C642.865 341.616 643.264 342.448 644.061 343.072C644.893 343.661 646.02 343.956 647.441 343.956ZM675.583 324.716C676.553 323.364 677.853 322.341 679.483 321.648C681.147 320.955 683.053 320.608 685.203 320.608V328.096C684.301 328.027 683.695 327.992 683.383 327.992C681.06 327.992 679.24 328.651 677.923 329.968C676.605 331.251 675.947 333.192 675.947 335.792V349H667.835V321.024H675.583V324.716ZM700.998 338.028L697.098 341.876V349H688.986V310.416H697.098V332.256L708.954 321.024H718.626L706.978 332.88L719.666 349H709.838L700.998 338.028ZM748.46 335.116C748.46 335.22 748.408 335.948 748.304 337.3H727.14C727.521 339.033 728.422 340.403 729.844 341.408C731.265 342.413 733.033 342.916 735.148 342.916C736.604 342.916 737.886 342.708 738.996 342.292C740.14 341.841 741.197 341.148 742.168 340.212L746.484 344.892C743.849 347.908 740.001 349.416 734.94 349.416C731.785 349.416 728.994 348.809 726.568 347.596C724.141 346.348 722.269 344.632 720.952 342.448C719.634 340.264 718.976 337.785 718.976 335.012C718.976 332.273 719.617 329.812 720.9 327.628C722.217 325.409 724.002 323.693 726.256 322.48C728.544 321.232 731.092 320.608 733.9 320.608C736.638 320.608 739.117 321.197 741.336 322.376C743.554 323.555 745.288 325.253 746.536 327.472C747.818 329.656 748.46 332.204 748.46 335.116ZM733.952 326.744C732.114 326.744 730.572 327.264 729.324 328.304C728.076 329.344 727.313 330.765 727.036 332.568H740.816C740.538 330.8 739.776 329.396 738.528 328.356C737.28 327.281 735.754 326.744 733.952 326.744ZM770.864 347.648C770.067 348.237 769.079 348.688 767.9 349C766.756 349.277 765.543 349.416 764.26 349.416C760.932 349.416 758.35 348.567 756.512 346.868C754.71 345.169 753.808 342.673 753.808 339.38V327.888H749.492V321.648H753.808V314.836H761.92V321.648H768.888V327.888H761.92V339.276C761.92 340.455 762.215 341.373 762.804 342.032C763.428 342.656 764.295 342.968 765.404 342.968C766.687 342.968 767.779 342.621 768.68 341.928L770.864 347.648ZM774.378 321.024H782.49V349H774.378V321.024ZM778.434 317.124C776.943 317.124 775.73 316.691 774.794 315.824C773.858 314.957 773.39 313.883 773.39 312.6C773.39 311.317 773.858 310.243 774.794 309.376C775.73 308.509 776.943 308.076 778.434 308.076C779.925 308.076 781.138 308.492 782.074 309.324C783.01 310.156 783.478 311.196 783.478 312.444C783.478 313.796 783.01 314.923 782.074 315.824C781.138 316.691 779.925 317.124 778.434 317.124ZM805.982 320.608C809.449 320.608 812.24 321.648 814.354 323.728C816.504 325.808 817.578 328.893 817.578 332.984V349H809.466V334.232C809.466 332.013 808.981 330.367 808.01 329.292C807.04 328.183 805.636 327.628 803.798 327.628C801.753 327.628 800.124 328.269 798.91 329.552C797.697 330.8 797.09 332.672 797.09 335.168V349H788.978V321.024H796.726V324.3C797.801 323.121 799.136 322.22 800.73 321.596C802.325 320.937 804.076 320.608 805.982 320.608ZM853.056 321.024V344.32C853.056 349.451 851.722 353.264 849.052 355.76C846.383 358.256 842.483 359.504 837.352 359.504C834.648 359.504 832.083 359.175 829.656 358.516C827.23 357.857 825.219 356.904 823.624 355.656L826.848 349.832C828.027 350.803 829.518 351.565 831.32 352.12C833.123 352.709 834.926 353.004 836.728 353.004C839.536 353.004 841.599 352.363 842.916 351.08C844.268 349.832 844.944 347.925 844.944 345.36V344.164C842.83 346.487 839.883 347.648 836.104 347.648C833.539 347.648 831.182 347.093 829.032 345.984C826.918 344.84 825.236 343.245 823.988 341.2C822.74 339.155 822.116 336.797 822.116 334.128C822.116 331.459 822.74 329.101 823.988 327.056C825.236 325.011 826.918 323.433 829.032 322.324C831.182 321.18 833.539 320.608 836.104 320.608C840.16 320.608 843.246 321.943 845.36 324.612V321.024H853.056ZM837.716 340.992C839.866 340.992 841.616 340.368 842.968 339.12C844.355 337.837 845.048 336.173 845.048 334.128C845.048 332.083 844.355 330.436 842.968 329.188C841.616 327.905 839.866 327.264 837.716 327.264C835.567 327.264 833.799 327.905 832.412 329.188C831.026 330.436 830.332 332.083 830.332 334.128C830.332 336.173 831.026 337.837 832.412 339.12C833.799 340.368 835.567 340.992 837.716 340.992ZM873.253 310.416H881.365V349H873.253V310.416ZM915.258 335.116C915.258 335.22 915.206 335.948 915.102 337.3H893.938C894.319 339.033 895.22 340.403 896.642 341.408C898.063 342.413 899.831 342.916 901.946 342.916C903.402 342.916 904.684 342.708 905.794 342.292C906.938 341.841 907.995 341.148 908.966 340.212L913.282 344.892C910.647 347.908 906.799 349.416 901.738 349.416C898.583 349.416 895.792 348.809 893.366 347.596C890.939 346.348 889.067 344.632 887.75 342.448C886.432 340.264 885.774 337.785 885.774 335.012C885.774 332.273 886.415 329.812 887.698 327.628C889.015 325.409 890.8 323.693 893.054 322.48C895.342 321.232 897.89 320.608 900.698 320.608C903.436 320.608 905.915 321.197 908.134 322.376C910.352 323.555 912.086 325.253 913.334 327.472C914.616 329.656 915.258 332.204 915.258 335.116ZM900.75 326.744C898.912 326.744 897.37 327.264 896.122 328.304C894.874 329.344 894.111 330.765 893.834 332.568H907.614C907.336 330.8 906.574 329.396 905.326 328.356C904.078 327.281 902.552 326.744 900.75 326.744ZM930.141 320.608C934.474 320.608 937.802 321.648 940.125 323.728C942.447 325.773 943.609 328.876 943.609 333.036V349H936.017V345.516C934.491 348.116 931.649 349.416 927.489 349.416C925.339 349.416 923.467 349.052 921.873 348.324C920.313 347.596 919.117 346.591 918.285 345.308C917.453 344.025 917.037 342.569 917.037 340.94C917.037 338.34 918.007 336.295 919.949 334.804C921.925 333.313 924.958 332.568 929.049 332.568H935.497C935.497 330.8 934.959 329.448 933.885 328.512C932.81 327.541 931.198 327.056 929.049 327.056C927.558 327.056 926.085 327.299 924.629 327.784C923.207 328.235 921.994 328.859 920.989 329.656L918.077 323.988C919.602 322.913 921.422 322.081 923.537 321.492C925.686 320.903 927.887 320.608 930.141 320.608ZM929.517 343.956C930.903 343.956 932.134 343.644 933.209 343.02C934.283 342.361 935.046 341.408 935.497 340.16V337.3H929.933C926.605 337.3 924.941 338.392 924.941 340.576C924.941 341.616 925.339 342.448 926.137 343.072C926.969 343.661 928.095 343.956 929.517 343.956ZM978.711 310.416V349H970.963V345.776C968.952 348.203 966.04 349.416 962.227 349.416C959.592 349.416 957.2 348.827 955.051 347.648C952.936 346.469 951.272 344.788 950.059 342.604C948.846 340.42 948.239 337.889 948.239 335.012C948.239 332.135 948.846 329.604 950.059 327.42C951.272 325.236 952.936 323.555 955.051 322.376C957.2 321.197 959.592 320.608 962.227 320.608C965.798 320.608 968.588 321.735 970.599 323.988V310.416H978.711ZM963.631 342.76C965.676 342.76 967.375 342.067 968.727 340.68C970.079 339.259 970.755 337.369 970.755 335.012C970.755 332.655 970.079 330.783 968.727 329.396C967.375 327.975 965.676 327.264 963.631 327.264C961.551 327.264 959.835 327.975 958.483 329.396C957.131 330.783 956.455 332.655 956.455 335.012C956.455 337.369 957.131 339.259 958.483 340.68C959.835 342.067 961.551 342.76 963.631 342.76ZM1010.15 320.608C1014.48 320.608 1017.81 321.648 1020.13 323.728C1022.46 325.773 1023.62 328.876 1023.62 333.036V349H1016.03V345.516C1014.5 348.116 1011.66 349.416 1007.5 349.416C1005.35 349.416 1003.48 349.052 1001.88 348.324C1000.32 347.596 999.126 346.591 998.294 345.308C997.462 344.025 997.046 342.569 997.046 340.94C997.046 338.34 998.016 336.295 999.958 334.804C1001.93 333.313 1004.97 332.568 1009.06 332.568H1015.51C1015.51 330.8 1014.97 329.448 1013.89 328.512C1012.82 327.541 1011.21 327.056 1009.06 327.056C1007.57 327.056 1006.09 327.299 1004.64 327.784C1003.22 328.235 1002 328.859 1001 329.656L998.086 323.988C999.611 322.913 1001.43 322.081 1003.55 321.492C1005.69 320.903 1007.9 320.608 1010.15 320.608ZM1009.53 343.956C1010.91 343.956 1012.14 343.644 1013.22 343.02C1014.29 342.361 1015.05 341.408 1015.51 340.16V337.3H1009.94C1006.61 337.3 1004.95 338.392 1004.95 340.576C1004.95 341.616 1005.35 342.448 1006.15 343.072C1006.98 343.661 1008.1 343.956 1009.53 343.956ZM1059.08 321.024V344.32C1059.08 349.451 1057.75 353.264 1055.08 355.76C1052.41 358.256 1048.51 359.504 1043.38 359.504C1040.68 359.504 1038.11 359.175 1035.68 358.516C1033.26 357.857 1031.25 356.904 1029.65 355.656L1032.88 349.832C1034.05 350.803 1035.55 351.565 1037.35 352.12C1039.15 352.709 1040.95 353.004 1042.76 353.004C1045.56 353.004 1047.63 352.363 1048.94 351.08C1050.3 349.832 1050.97 347.925 1050.97 345.36V344.164C1048.86 346.487 1045.91 347.648 1042.13 347.648C1039.57 347.648 1037.21 347.093 1035.06 345.984C1032.95 344.84 1031.26 343.245 1030.02 341.2C1028.77 339.155 1028.14 336.797 1028.14 334.128C1028.14 331.459 1028.77 329.101 1030.02 327.056C1031.26 325.011 1032.95 323.433 1035.06 322.324C1037.21 321.18 1039.57 320.608 1042.13 320.608C1046.19 320.608 1049.27 321.943 1051.39 324.612V321.024H1059.08ZM1043.74 340.992C1045.89 340.992 1047.64 340.368 1049 339.12C1050.38 337.837 1051.08 336.173 1051.08 334.128C1051.08 332.083 1050.38 330.436 1049 329.188C1047.64 327.905 1045.89 327.264 1043.74 327.264C1041.59 327.264 1039.83 327.905 1038.44 329.188C1037.05 330.436 1036.36 332.083 1036.36 334.128C1036.36 336.173 1037.05 337.837 1038.44 339.12C1039.83 340.368 1041.59 340.992 1043.74 340.992ZM1076.88 320.608C1081.21 320.608 1084.54 321.648 1086.86 323.728C1089.18 325.773 1090.35 328.876 1090.35 333.036V349H1082.75V345.516C1081.23 348.116 1078.39 349.416 1074.23 349.416C1072.08 349.416 1070.2 349.052 1068.61 348.324C1067.05 347.596 1065.85 346.591 1065.02 345.308C1064.19 344.025 1063.77 342.569 1063.77 340.94C1063.77 338.34 1064.74 336.295 1066.69 334.804C1068.66 333.313 1071.7 332.568 1075.79 332.568H1082.23C1082.23 330.8 1081.7 329.448 1080.62 328.512C1079.55 327.541 1077.94 327.056 1075.79 327.056C1074.3 327.056 1072.82 327.299 1071.37 327.784C1069.94 328.235 1068.73 328.859 1067.73 329.656L1064.81 323.988C1066.34 322.913 1068.16 322.081 1070.27 321.492C1072.42 320.903 1074.62 320.608 1076.88 320.608ZM1076.25 343.956C1077.64 343.956 1078.87 343.644 1079.95 343.02C1081.02 342.361 1081.78 341.408 1082.23 340.16V337.3H1076.67C1073.34 337.3 1071.68 338.392 1071.68 340.576C1071.68 341.616 1072.08 342.448 1072.87 343.072C1073.71 343.661 1074.83 343.956 1076.25 343.956ZM1096.65 321.024H1104.76V349H1096.65V321.024ZM1100.7 317.124C1099.21 317.124 1098 316.691 1097.06 315.824C1096.13 314.957 1095.66 313.883 1095.66 312.6C1095.66 311.317 1096.13 310.243 1097.06 309.376C1098 308.509 1099.21 308.076 1100.7 308.076C1102.19 308.076 1103.41 308.492 1104.34 309.324C1105.28 310.156 1105.75 311.196 1105.75 312.444C1105.75 313.796 1105.28 314.923 1104.34 315.824C1103.41 316.691 1102.19 317.124 1100.7 317.124ZM1128.25 320.608C1131.72 320.608 1134.51 321.648 1136.62 323.728C1138.77 325.808 1139.85 328.893 1139.85 332.984V349H1131.74V334.232C1131.74 332.013 1131.25 330.367 1130.28 329.292C1129.31 328.183 1127.91 327.628 1126.07 327.628C1124.02 327.628 1122.39 328.269 1121.18 329.552C1119.97 330.8 1119.36 332.672 1119.36 335.168V349H1111.25V321.024H1119V324.3C1120.07 323.121 1121.41 322.22 1123 321.596C1124.6 320.937 1126.35 320.608 1128.25 320.608ZM1149.23 349.416C1147.81 349.416 1146.61 348.931 1145.64 347.96C1144.67 346.989 1144.19 345.776 1144.19 344.32C1144.19 342.829 1144.67 341.633 1145.64 340.732C1146.61 339.796 1147.81 339.328 1149.23 339.328C1150.65 339.328 1151.85 339.796 1152.82 340.732C1153.79 341.633 1154.27 342.829 1154.27 344.32C1154.27 345.776 1153.79 346.989 1152.82 347.96C1151.85 348.931 1150.65 349.416 1149.23 349.416Z" fill="black"/>
</svg>
